<mxfile host="app.diagrams.net" agent="Mozilla/5.0 (Windows NT 10.0; Win64; x64; rv:133.0) Gecko/20100101 Firefox/133.0" version="25.0.3">
  <diagram name="Page-1" id="QUfRfOZSLHliQLhIeF3j">
    <mxGraphModel dx="1247" dy="680" grid="1" gridSize="10" guides="1" tooltips="1" connect="1" arrows="1" fold="1" page="1" pageScale="1" pageWidth="827" pageHeight="1169" math="0" shadow="0">
      <root>
        <mxCell id="0" />
        <mxCell id="1" parent="0" />
        <mxCell id="cKFNGJ6fv8SmddQC73bc-3" value="" style="edgeStyle=orthogonalEdgeStyle;rounded=0;orthogonalLoop=1;jettySize=auto;html=1;" parent="1" source="cKFNGJ6fv8SmddQC73bc-1" target="cKFNGJ6fv8SmddQC73bc-2" edge="1">
          <mxGeometry relative="1" as="geometry" />
        </mxCell>
        <mxCell id="cKFNGJ6fv8SmddQC73bc-1" value="main" style="rounded=0;whiteSpace=wrap;html=1;" parent="1" vertex="1">
          <mxGeometry x="30" y="40" width="120" height="60" as="geometry" />
        </mxCell>
        <mxCell id="cKFNGJ6fv8SmddQC73bc-5" value="" style="edgeStyle=orthogonalEdgeStyle;rounded=0;orthogonalLoop=1;jettySize=auto;html=1;" parent="1" source="cKFNGJ6fv8SmddQC73bc-2" target="cKFNGJ6fv8SmddQC73bc-4" edge="1">
          <mxGeometry relative="1" as="geometry" />
        </mxCell>
        <mxCell id="cKFNGJ6fv8SmddQC73bc-2" value="create window" style="whiteSpace=wrap;html=1;rounded=1;" parent="1" vertex="1">
          <mxGeometry x="190" y="40" width="120" height="60" as="geometry" />
        </mxCell>
        <mxCell id="cKFNGJ6fv8SmddQC73bc-7" value="" style="edgeStyle=orthogonalEdgeStyle;rounded=0;orthogonalLoop=1;jettySize=auto;html=1;" parent="1" source="Nh2Db0HxUHMHRYFtld47-1" target="cKFNGJ6fv8SmddQC73bc-6" edge="1">
          <mxGeometry relative="1" as="geometry" />
        </mxCell>
        <mxCell id="cKFNGJ6fv8SmddQC73bc-4" value="Get Textures from files" style="whiteSpace=wrap;html=1;rounded=1;" parent="1" vertex="1">
          <mxGeometry x="350" y="40" width="120" height="60" as="geometry" />
        </mxCell>
        <mxCell id="cKFNGJ6fv8SmddQC73bc-6" value="createShip" style="whiteSpace=wrap;html=1;rounded=1;" parent="1" vertex="1">
          <mxGeometry x="660" y="130" width="120" height="60" as="geometry" />
        </mxCell>
        <mxCell id="cKFNGJ6fv8SmddQC73bc-12" value="" style="edgeStyle=orthogonalEdgeStyle;rounded=0;orthogonalLoop=1;jettySize=auto;html=1;" parent="1" source="cKFNGJ6fv8SmddQC73bc-24" target="cKFNGJ6fv8SmddQC73bc-10" edge="1">
          <mxGeometry relative="1" as="geometry">
            <mxPoint x="590" y="350" as="targetPoint" />
            <mxPoint x="590" y="290" as="sourcePoint" />
          </mxGeometry>
        </mxCell>
        <mxCell id="cKFNGJ6fv8SmddQC73bc-14" value="" style="edgeStyle=orthogonalEdgeStyle;rounded=0;orthogonalLoop=1;jettySize=auto;html=1;" parent="1" source="cKFNGJ6fv8SmddQC73bc-10" target="cKFNGJ6fv8SmddQC73bc-13" edge="1">
          <mxGeometry relative="1" as="geometry" />
        </mxCell>
        <mxCell id="cKFNGJ6fv8SmddQC73bc-15" value="yes" style="edgeLabel;html=1;align=center;verticalAlign=middle;resizable=0;points=[];" parent="cKFNGJ6fv8SmddQC73bc-14" vertex="1" connectable="0">
          <mxGeometry x="-0.1952" relative="1" as="geometry">
            <mxPoint as="offset" />
          </mxGeometry>
        </mxCell>
        <mxCell id="cKFNGJ6fv8SmddQC73bc-16" style="edgeStyle=orthogonalEdgeStyle;rounded=0;orthogonalLoop=1;jettySize=auto;html=1;exitX=0;exitY=0.5;exitDx=0;exitDy=0;" parent="1" source="cKFNGJ6fv8SmddQC73bc-10" target="cKFNGJ6fv8SmddQC73bc-21" edge="1">
          <mxGeometry relative="1" as="geometry">
            <mxPoint x="580" y="460" as="targetPoint" />
            <mxPoint x="590" y="430" as="sourcePoint" />
            <Array as="points">
              <mxPoint x="520" y="350" />
              <mxPoint x="520" y="350" />
            </Array>
          </mxGeometry>
        </mxCell>
        <mxCell id="cKFNGJ6fv8SmddQC73bc-17" value="no" style="edgeLabel;html=1;align=center;verticalAlign=middle;resizable=0;points=[];" parent="cKFNGJ6fv8SmddQC73bc-16" vertex="1" connectable="0">
          <mxGeometry x="-0.0105" relative="1" as="geometry">
            <mxPoint y="-5" as="offset" />
          </mxGeometry>
        </mxCell>
        <mxCell id="cKFNGJ6fv8SmddQC73bc-10" value="&lt;div&gt;esc&amp;nbsp;&lt;/div&gt;&lt;div&gt;pressed?&lt;/div&gt;" style="rhombus;whiteSpace=wrap;html=1;" parent="1" vertex="1">
          <mxGeometry x="540" y="310" width="80" height="80" as="geometry" />
        </mxCell>
        <mxCell id="cKFNGJ6fv8SmddQC73bc-13" value="close program" style="rounded=0;whiteSpace=wrap;html=1;" parent="1" vertex="1">
          <mxGeometry x="680" y="320" width="120" height="60" as="geometry" />
        </mxCell>
        <mxCell id="cKFNGJ6fv8SmddQC73bc-20" value="" style="edgeStyle=orthogonalEdgeStyle;rounded=0;orthogonalLoop=1;jettySize=auto;html=1;" parent="1" source="cKFNGJ6fv8SmddQC73bc-18" target="cKFNGJ6fv8SmddQC73bc-19" edge="1">
          <mxGeometry relative="1" as="geometry" />
        </mxCell>
        <mxCell id="cKFNGJ6fv8SmddQC73bc-18" value="&lt;div&gt;check inputted&amp;nbsp;&lt;/div&gt;&lt;div&gt;direct&lt;/div&gt;" style="rounded=1;whiteSpace=wrap;html=1;" parent="1" vertex="1">
          <mxGeometry x="70" y="320" width="120" height="60" as="geometry" />
        </mxCell>
        <mxCell id="cKFNGJ6fv8SmddQC73bc-30" value="" style="edgeStyle=orthogonalEdgeStyle;rounded=0;orthogonalLoop=1;jettySize=auto;html=1;" parent="1" source="cKFNGJ6fv8SmddQC73bc-19" target="cKFNGJ6fv8SmddQC73bc-29" edge="1">
          <mxGeometry relative="1" as="geometry" />
        </mxCell>
        <mxCell id="cKFNGJ6fv8SmddQC73bc-19" value="&lt;div&gt;accell ship in&amp;nbsp;&lt;/div&gt;&lt;div&gt;inputed direction&lt;/div&gt;" style="whiteSpace=wrap;html=1;rounded=1;" parent="1" vertex="1">
          <mxGeometry x="70" y="410" width="120" height="60" as="geometry" />
        </mxCell>
        <mxCell id="cKFNGJ6fv8SmddQC73bc-26" style="edgeStyle=orthogonalEdgeStyle;rounded=0;orthogonalLoop=1;jettySize=auto;html=1;" parent="1" source="cKFNGJ6fv8SmddQC73bc-21" target="cKFNGJ6fv8SmddQC73bc-27" edge="1">
          <mxGeometry relative="1" as="geometry">
            <mxPoint x="460" y="450" as="targetPoint" />
          </mxGeometry>
        </mxCell>
        <mxCell id="cKFNGJ6fv8SmddQC73bc-21" value="scroll paralax background" style="rounded=1;whiteSpace=wrap;html=1;" parent="1" vertex="1">
          <mxGeometry x="370" y="320" width="120" height="60" as="geometry" />
        </mxCell>
        <mxCell id="cKFNGJ6fv8SmddQC73bc-23" value="" style="edgeStyle=orthogonalEdgeStyle;rounded=0;orthogonalLoop=1;jettySize=auto;html=1;" parent="1" source="cKFNGJ6fv8SmddQC73bc-4" target="cKFNGJ6fv8SmddQC73bc-22" edge="1">
          <mxGeometry relative="1" as="geometry">
            <mxPoint x="470" y="70" as="sourcePoint" />
            <mxPoint x="580" y="200" as="targetPoint" />
          </mxGeometry>
        </mxCell>
        <mxCell id="cKFNGJ6fv8SmddQC73bc-22" value="store textures in textures object" style="rounded=1;whiteSpace=wrap;html=1;" parent="1" vertex="1">
          <mxGeometry x="510" y="40" width="120" height="60" as="geometry" />
        </mxCell>
        <mxCell id="cKFNGJ6fv8SmddQC73bc-25" value="" style="edgeStyle=orthogonalEdgeStyle;rounded=0;orthogonalLoop=1;jettySize=auto;html=1;" parent="1" source="cKFNGJ6fv8SmddQC73bc-6" target="cKFNGJ6fv8SmddQC73bc-24" edge="1">
          <mxGeometry relative="1" as="geometry">
            <mxPoint x="580" y="450" as="targetPoint" />
            <mxPoint x="580" y="290" as="sourcePoint" />
          </mxGeometry>
        </mxCell>
        <mxCell id="cKFNGJ6fv8SmddQC73bc-24" value="set ship sprite location ect" style="rounded=1;whiteSpace=wrap;html=1;" parent="1" vertex="1">
          <mxGeometry x="660" y="220" width="120" height="60" as="geometry" />
        </mxCell>
        <mxCell id="cKFNGJ6fv8SmddQC73bc-28" style="edgeStyle=orthogonalEdgeStyle;rounded=0;orthogonalLoop=1;jettySize=auto;html=1;" parent="1" source="cKFNGJ6fv8SmddQC73bc-27" target="cKFNGJ6fv8SmddQC73bc-18" edge="1">
          <mxGeometry relative="1" as="geometry" />
        </mxCell>
        <mxCell id="cKFNGJ6fv8SmddQC73bc-27" value="draw background elements" style="rounded=1;whiteSpace=wrap;html=1;" parent="1" vertex="1">
          <mxGeometry x="220" y="320" width="120" height="60" as="geometry" />
        </mxCell>
        <mxCell id="cKFNGJ6fv8SmddQC73bc-32" value="" style="edgeStyle=orthogonalEdgeStyle;rounded=0;orthogonalLoop=1;jettySize=auto;html=1;" parent="1" source="cKFNGJ6fv8SmddQC73bc-29" target="cKFNGJ6fv8SmddQC73bc-31" edge="1">
          <mxGeometry relative="1" as="geometry" />
        </mxCell>
        <mxCell id="cKFNGJ6fv8SmddQC73bc-29" value="&lt;div&gt;iterate through&amp;nbsp;&lt;/div&gt;&lt;div&gt;all entites&lt;/div&gt;" style="whiteSpace=wrap;html=1;rounded=1;" parent="1" vertex="1">
          <mxGeometry x="70" y="500" width="120" height="60" as="geometry" />
        </mxCell>
        <mxCell id="cKFNGJ6fv8SmddQC73bc-34" style="edgeStyle=orthogonalEdgeStyle;rounded=0;orthogonalLoop=1;jettySize=auto;html=1;entryX=0;entryY=0.5;entryDx=0;entryDy=0;" parent="1" source="cKFNGJ6fv8SmddQC73bc-37" target="cKFNGJ6fv8SmddQC73bc-39" edge="1">
          <mxGeometry relative="1" as="geometry" />
        </mxCell>
        <mxCell id="cKFNGJ6fv8SmddQC73bc-31" value="move entity by store velocity" style="whiteSpace=wrap;html=1;rounded=1;" parent="1" vertex="1">
          <mxGeometry x="220" y="500" width="120" height="60" as="geometry" />
        </mxCell>
        <mxCell id="cKFNGJ6fv8SmddQC73bc-35" style="edgeStyle=orthogonalEdgeStyle;rounded=0;orthogonalLoop=1;jettySize=auto;html=1;entryX=0.5;entryY=1;entryDx=0;entryDy=0;" parent="1" source="cKFNGJ6fv8SmddQC73bc-33" target="cKFNGJ6fv8SmddQC73bc-29" edge="1">
          <mxGeometry relative="1" as="geometry">
            <Array as="points">
              <mxPoint x="730" y="650" />
              <mxPoint x="130" y="650" />
            </Array>
          </mxGeometry>
        </mxCell>
        <mxCell id="cKFNGJ6fv8SmddQC73bc-36" value="no" style="edgeLabel;html=1;align=center;verticalAlign=middle;resizable=0;points=[];" parent="cKFNGJ6fv8SmddQC73bc-35" vertex="1" connectable="0">
          <mxGeometry x="-0.8719" y="-1" relative="1" as="geometry">
            <mxPoint x="1" y="-9" as="offset" />
          </mxGeometry>
        </mxCell>
        <mxCell id="Nh2Db0HxUHMHRYFtld47-7" style="edgeStyle=orthogonalEdgeStyle;rounded=0;orthogonalLoop=1;jettySize=auto;html=1;entryX=1;entryY=0.5;entryDx=0;entryDy=0;" edge="1" parent="1" source="cKFNGJ6fv8SmddQC73bc-33" target="Nh2Db0HxUHMHRYFtld47-3">
          <mxGeometry relative="1" as="geometry" />
        </mxCell>
        <mxCell id="Nh2Db0HxUHMHRYFtld47-10" value="yes" style="edgeLabel;html=1;align=center;verticalAlign=middle;resizable=0;points=[];" vertex="1" connectable="0" parent="Nh2Db0HxUHMHRYFtld47-7">
          <mxGeometry x="-0.4154" y="1" relative="1" as="geometry">
            <mxPoint x="1" as="offset" />
          </mxGeometry>
        </mxCell>
        <mxCell id="cKFNGJ6fv8SmddQC73bc-33" value="are all entitites iterated through" style="rhombus;whiteSpace=wrap;html=1;" parent="1" vertex="1">
          <mxGeometry x="670" y="470" width="120" height="120" as="geometry" />
        </mxCell>
        <mxCell id="cKFNGJ6fv8SmddQC73bc-38" value="" style="edgeStyle=orthogonalEdgeStyle;rounded=0;orthogonalLoop=1;jettySize=auto;html=1;entryX=0;entryY=0.5;entryDx=0;entryDy=0;" parent="1" source="cKFNGJ6fv8SmddQC73bc-31" target="cKFNGJ6fv8SmddQC73bc-37" edge="1">
          <mxGeometry relative="1" as="geometry">
            <mxPoint x="340" y="530" as="sourcePoint" />
            <mxPoint x="480" y="530" as="targetPoint" />
          </mxGeometry>
        </mxCell>
        <mxCell id="cKFNGJ6fv8SmddQC73bc-37" value="&lt;div&gt;ensure entity is&amp;nbsp;&lt;/div&gt;&lt;div&gt;within bounds&lt;/div&gt;" style="rounded=1;whiteSpace=wrap;html=1;" parent="1" vertex="1">
          <mxGeometry x="370" y="500" width="120" height="60" as="geometry" />
        </mxCell>
        <mxCell id="cKFNGJ6fv8SmddQC73bc-42" style="edgeStyle=orthogonalEdgeStyle;rounded=0;orthogonalLoop=1;jettySize=auto;html=1;entryX=0;entryY=0.5;entryDx=0;entryDy=0;" parent="1" source="cKFNGJ6fv8SmddQC73bc-39" target="cKFNGJ6fv8SmddQC73bc-33" edge="1">
          <mxGeometry relative="1" as="geometry" />
        </mxCell>
        <mxCell id="cKFNGJ6fv8SmddQC73bc-39" value="draw entity" style="rounded=1;whiteSpace=wrap;html=1;" parent="1" vertex="1">
          <mxGeometry x="520" y="500" width="120" height="60" as="geometry" />
        </mxCell>
        <mxCell id="Nh2Db0HxUHMHRYFtld47-2" value="" style="edgeStyle=orthogonalEdgeStyle;rounded=0;orthogonalLoop=1;jettySize=auto;html=1;" edge="1" parent="1" source="cKFNGJ6fv8SmddQC73bc-22" target="Nh2Db0HxUHMHRYFtld47-1">
          <mxGeometry relative="1" as="geometry">
            <mxPoint x="580" y="100" as="sourcePoint" />
            <mxPoint x="580" y="220" as="targetPoint" />
          </mxGeometry>
        </mxCell>
        <mxCell id="Nh2Db0HxUHMHRYFtld47-1" value="init ui elements" style="rounded=1;whiteSpace=wrap;html=1;" vertex="1" parent="1">
          <mxGeometry x="660" y="40" width="120" height="60" as="geometry" />
        </mxCell>
        <mxCell id="Nh2Db0HxUHMHRYFtld47-9" style="edgeStyle=orthogonalEdgeStyle;rounded=0;orthogonalLoop=1;jettySize=auto;html=1;entryX=0.5;entryY=1;entryDx=0;entryDy=0;" edge="1" parent="1" source="Nh2Db0HxUHMHRYFtld47-3" target="cKFNGJ6fv8SmddQC73bc-10">
          <mxGeometry relative="1" as="geometry">
            <mxPoint x="570" y="410" as="targetPoint" />
            <Array as="points">
              <mxPoint x="580" y="440" />
            </Array>
          </mxGeometry>
        </mxCell>
        <mxCell id="Nh2Db0HxUHMHRYFtld47-3" value="draw ui" style="rounded=1;whiteSpace=wrap;html=1;" vertex="1" parent="1">
          <mxGeometry x="590" y="410" width="120" height="60" as="geometry" />
        </mxCell>
      </root>
    </mxGraphModel>
  </diagram>
</mxfile>
